<svg xmlns="http://www.w3.org/2000/svg" viewBox="0 0 32 32" width="32" height="32">
  <circle cx="16" cy="16" r="15.5" fill="#0f172a" stroke="#f97316" stroke-width="1"/>
  <!-- Radar rings -->
  <circle cx="16" cy="12" r="9" fill="none" stroke="#f97316" stroke-width="0.5" opacity="0.3"/>
  <circle cx="16" cy="12" r="5.5" fill="none" stroke="#f97316" stroke-width="0.6" opacity="0.45"/>
  <!-- Crosshair -->
  <line x1="16" y1="2"  x2="16" y2="8.5"  stroke="#f97316" stroke-width="1.1"/>
  <line x1="16" y1="15.5" x2="16" y2="22" stroke="#f97316" stroke-width="1.1"/>
  <line x1="2"  y1="12" x2="8.5"  y2="12" stroke="#f97316" stroke-width="1.1"/>
  <line x1="23.5" y1="12" x2="30" y2="12" stroke="#f97316" stroke-width="1.1"/>
  <!-- Target dot -->
  <circle cx="16" cy="12" r="2" fill="#f97316"/>
  <circle cx="16" cy="12" r="0.8" fill="#fff"/>
  <!-- Volcano -->
  <polygon points="16,15 5,27 27,27" fill="#1e293b"/>
  <polygon points="16,15 12,23 20,23" fill="#374151" opacity="0.8"/>
  <!-- Lava -->
  <path d="M14.5,17.5 Q11,22 9,26"  stroke="#f97316" stroke-width="1.5" fill="none" stroke-linecap="round"/>
  <path d="M17.5,18 Q20,23 22,26"   stroke="#ea580c" stroke-width="1.2" fill="none" stroke-linecap="round"/>
  <!-- Base bar -->
  <rect x="5" y="27" width="22" height="2" fill="#1e293b" rx="0.5"/>
  <!-- Circuit dots -->
  <circle cx="9"  cy="29.5" r="0.9" fill="#f97316" opacity="0.7"/>
  <circle cx="16" cy="30"   r="0.9" fill="#06b6d4" opacity="0.6"/>
  <circle cx="23" cy="29.5" r="0.9" fill="#f97316" opacity="0.7"/>
</svg>
