<svg xmlns="http://www.w3.org/2000/svg" viewBox="0 0 100 100" width="100" height="100">
  <!-- White background with orange border -->
  <rect x="0" y="0" width="100" height="100" rx="16" fill="#ffffff"/>
  <rect x="0" y="0" width="100" height="100" rx="16" fill="none" stroke="#f97316" stroke-width="3"/>

  <!-- Radar rings above volcano peak -->
  <circle cx="50" cy="32" r="22" fill="none" stroke="#f97316" stroke-width="1.2" opacity="0.25"/>
  <circle cx="50" cy="32" r="14" fill="none" stroke="#f97316" stroke-width="1.4" opacity="0.45"/>
  <circle cx="50" cy="32" r="7"  fill="none" stroke="#f97316" stroke-width="1.6" opacity="0.7"/>

  <!-- Crosshair lines -->
  <line x1="50" y1="5"  x2="50" y2="22" stroke="#f97316" stroke-width="2.5" stroke-linecap="round"/>
  <line x1="50" y1="42" x2="50" y2="55" stroke="#f97316" stroke-width="2.5" stroke-linecap="round"/>
  <line x1="6"  y1="32" x2="21" y2="32" stroke="#f97316" stroke-width="2.5" stroke-linecap="round"/>
  <line x1="79" y1="32" x2="94" y2="32" stroke="#f97316" stroke-width="2.5" stroke-linecap="round"/>

  <!-- Target/eruption dot -->
  <circle cx="50" cy="32" r="4" fill="#f97316"/>
  <circle cx="50" cy="32" r="1.8" fill="#ffffff"/>

  <!-- Volcano body — dark, large, clear -->
  <polygon points="50,40 12,88 88,88" fill="#1e293b"/>
  <!-- Inner shadow/ridge -->
  <polygon points="50,40 36,74 64,74" fill="#334155"/>

  <!-- Lava flows — thick and visible -->
  <path d="M46,50 Q36,65 28,85"  stroke="#f97316" stroke-width="3.5" fill="none" stroke-linecap="round"/>
  <path d="M54,52 Q62,67 70,84"  stroke="#ea580c" stroke-width="3"   fill="none" stroke-linecap="round"/>
  <path d="M50,43 Q47,58 45,74"  stroke="#fb923c" stroke-width="2.5" fill="none" stroke-linecap="round" opacity="0.8"/>

  <!-- Eruption glow at peak -->
  <circle cx="50" cy="40" r="6" fill="#fed7aa" opacity="0.6"/>

  <!-- Circuit board strip at base -->
  <rect x="12" y="88" width="76" height="5" rx="2" fill="#1e293b"/>
  <!-- Circuit dots -->
  <circle cx="22" cy="90.5" r="2"   fill="#f97316"/>
  <circle cx="36" cy="90.5" r="1.5" fill="#06b6d4"/>
  <circle cx="50" cy="90.5" r="2"   fill="#f97316"/>
  <circle cx="64" cy="90.5" r="1.5" fill="#06b6d4"/>
  <circle cx="78" cy="90.5" r="2"   fill="#f97316"/>

  <!-- Small circuit lines on strip -->
  <line x1="22" y1="88" x2="22" y2="93" stroke="#f97316" stroke-width="1.2"/>
  <line x1="50" y1="88" x2="50" y2="93" stroke="#f97316" stroke-width="1.2"/>
  <line x1="78" y1="88" x2="78" y2="93" stroke="#f97316" stroke-width="1.2"/>
</svg>
